<svg xmlns="http://www.w3.org/2000/svg" viewBox="0 0 64 64" width="64" height="64">
  <defs>
    <linearGradient id="bg" x1="0" y1="0" x2="0" y2="1">
      <stop offset="0%" stop-color="#4cd964"/>
      <stop offset="100%" stop-color="#34c759"/>
    </linearGradient>
  </defs>
  <!-- Rounded square background -->
  <rect x="2" y="2" width="60" height="60" rx="14" ry="14" fill="url(#bg)"/>
  <!-- Stem -->
  <path d="M32 48 C32 48 32 30 32 28" stroke="white" stroke-width="3.5" stroke-linecap="round" fill="none"/>
  <!-- Left leaf -->
  <path d="M32 34 C28 30 20 28 18 26 C20 32 26 34 32 34Z" fill="white" opacity="0.9"/>
  <!-- Right leaf -->
  <path d="M32 28 C36 24 42 22 44 20 C42 26 36 28 32 28Z" fill="white"/>
  <!-- Small emerging leaf pair at top -->
  <path d="M32 24 C30 20 28 17 27 15 C30 17 32 20 32 24Z" fill="white" opacity="0.85"/>
  <path d="M32 24 C34 20 36 17 37 15 C34 17 32 20 32 24Z" fill="white" opacity="0.85"/>
</svg>
